<svg id="svg" version="1.1" xmlns="http://www.w3.org/2000/svg" xmlns:xlink="http://www.w3.org/1999/xlink" width="400" height="226.79528403001072" viewBox="0, 0, 400,226.79528403001072"><g id="svgg"><path id="path0" d="M51.876 89.254 C 50.003 89.940,30.705 103.006,30.666 103.614 C 30.651 103.836,35.027 108.705,36.842 110.486 C 38.009 111.631,38.171 111.725,38.516 111.450 C 40.335 110.006,56.763 96.295,56.979 96.041 C 60.099 92.374,56.485 87.566,51.876 89.254 M15.897 116.774 C -0.748 134.449,-4.053 148.566,4.866 163.892 C 5.339 164.705,5.449 165.102,5.339 165.595 C 4.497 169.363,5.828 173.742,8.660 176.527 C 18.216 185.922,33.631 174.626,27.669 162.598 C 27.318 161.889,27.098 161.242,27.181 161.161 C 27.263 161.080,32.766 157.630,39.409 153.494 L 51.488 145.975 52.334 146.203 C 57.929 147.710,65.182 143.794,67.305 138.121 C 69.998 130.921,65.546 122.723,58.063 121.104 C 55.611 120.574,50.249 121.244,49.518 122.172 C 49.459 122.247,48.928 122.614,48.339 122.987 C 42.894 126.439,40.916 133.749,43.850 139.575 C 44.273 140.416,44.540 141.178,44.443 141.269 C 44.345 141.360,38.919 144.826,32.383 148.971 L 20.500 156.507 18.767 156.295 C 17.813 156.179,16.643 156.136,16.166 156.200 L 15.299 156.316 14.822 154.374 C 12.403 144.510,15.853 134.676,25.517 123.891 L 26.966 122.273 22.840 118.157 C 20.570 115.893,18.659 114.041,18.592 114.041 C 18.526 114.041,17.313 115.271,15.897 116.774 M55.793 123.383 C 56.954 123.788,58.735 125.006,59.317 125.794 L 59.770 126.406 58.583 127.673 C 57.929 128.369,55.984 130.415,54.260 132.218 C 52.536 134.022,51.096 135.581,51.060 135.683 C 50.967 135.947,48.842 138.049,48.668 138.049 C 48.320 138.049,46.726 136.472,46.121 135.529 C 41.986 129.084,48.541 120.852,55.793 123.383 M15.420 159.414 C 17.463 160.074,19.255 162.178,19.590 164.309 C 19.723 165.161,19.711 165.179,17.579 167.368 C 16.399 168.579,15.434 169.644,15.434 169.735 C 15.434 169.826,15.020 170.306,14.515 170.802 C 13.035 172.254,10.670 171.866,8.746 169.854 C 4.141 165.040,9.053 157.358,15.420 159.414 M27.438 176.940 C 23.423 178.054,18.275 182.315,19.322 183.659 C 19.481 183.863,21.400 186.104,23.587 188.639 C 25.774 191.174,28.386 194.235,29.393 195.441 L 31.223 197.635 30.817 199.192 C 27.062 213.608,45.105 223.942,55.627 213.401 C 66.961 202.046,55.192 183.769,39.871 188.931 C 39.652 189.005,37.893 187.075,34.316 182.837 C 31.323 179.290,28.937 176.643,28.743 176.654 C 28.556 176.664,27.969 176.793,27.438 176.940 M43.119 191.156 C 43.949 191.523,45.822 193.080,45.620 193.235 C 45.583 193.264,43.551 195.181,41.105 197.495 C 36.267 202.073,36.382 202.011,35.393 200.564 C 31.775 195.267,37.274 188.571,43.119 191.156 M33.791 217.879 C 30.074 219.262,29.804 224.542,33.362 226.283 C 37.479 228.297,41.681 223.811,39.370 219.868 C 38.306 218.052,35.763 217.145,33.791 217.879 M34.971 218.846 L 35.477 219.256 34.941 219.832 C 33.229 221.670,32.308 221.950,32.128 220.686 C 31.888 218.996,33.705 217.819,34.971 218.846 " stroke="none" fill="#237bc1" fill-rule="evenodd"></path><path id="path1" d="M74.714 7.824 C 74.784 8.060,75.163 9.314,75.556 10.611 C 80.552 27.108,77.999 41.974,67.364 58.307 C 61.591 67.173,51.226 73.593,41.693 74.207 L 40.622 74.277 40.553 72.454 C 40.311 65.964,41.946 61.727,47.875 53.483 C 51.805 48.019,53.988 43.919,55.207 39.712 C 55.814 37.617,55.782 37.443,54.943 38.291 C 54.612 38.626,54.261 38.875,54.164 38.844 C 54.067 38.814,54.041 38.876,54.107 38.983 C 54.174 39.090,53.157 40.656,51.847 42.463 C 37.114 62.804,31.028 74.253,31.003 81.672 C 30.990 85.442,31.093 85.531,35.476 85.531 C 46.739 85.531,58.142 78.137,68.204 64.309 C 80.174 47.857,82.896 30.804,76.504 12.300 C 75.612 9.718,74.304 6.447,74.714 7.824 M29.368 43.997 C 28.955 44.372,28.644 44.763,28.676 44.864 C 28.709 44.965,28.650 44.995,28.545 44.931 C 28.350 44.810,21.565 50.405,17.063 54.401 L 14.512 56.665 14.648 63.220 C 14.888 74.748,16.005 80.001,19.868 87.781 C 21.617 91.303,21.710 91.384,21.095 88.837 C 18.974 80.066,20.912 72.854,27.785 63.934 C 28.535 62.961,29.043 62.165,28.916 62.165 C 28.750 62.165,28.727 59.655,28.835 53.430 L 28.986 44.695 29.648 43.998 C 30.490 43.111,30.341 43.110,29.368 43.997 M38.465 52.144 L 37.835 52.840 38.532 52.211 C 39.181 51.624,39.327 51.447,39.161 51.447 C 39.124 51.447,38.811 51.760,38.465 52.144 M34.820 55.788 L 34.191 56.484 34.887 55.855 C 35.537 55.268,35.683 55.091,35.517 55.091 C 35.480 55.091,35.167 55.405,34.820 55.788 M21.865 117.323 C 21.865 117.360,22.178 117.674,22.562 118.020 L 23.258 118.650 22.629 117.953 C 22.042 117.303,21.865 117.158,21.865 117.323 M65.476 141.282 C 64.028 143.371,61.219 145.258,58.496 145.971 C 57.625 146.199,57.082 146.391,57.288 146.398 C 57.711 146.411,57.871 149.196,57.449 149.196 C 57.331 149.196,57.235 149.062,57.235 148.898 C 57.235 148.733,57.085 148.541,56.901 148.471 C 56.702 148.394,56.845 148.728,57.259 149.306 C 57.639 149.835,58.036 150.268,58.141 150.268 C 58.246 150.268,58.276 150.358,58.207 150.469 C 58.139 150.580,58.254 150.770,58.463 150.891 C 58.672 151.013,58.769 151.115,58.679 151.119 C 58.589 151.122,58.748 151.494,59.033 151.945 C 64.651 160.844,65.024 170.534,60.107 179.798 C 57.258 185.166,57.886 188.210,61.844 188.210 C 63.480 188.210,64.220 187.845,65.596 186.358 C 76.687 174.376,77.279 159.129,67.309 142.249 C 66.034 140.090,66.230 140.194,65.476 141.282 M25.838 175.923 C 23.600 178.407,20.600 179.850,17.677 179.850 C 15.916 179.850,15.889 179.745,18.390 182.602 L 19.016 183.317 19.577 182.359 C 20.696 180.450,24.138 177.962,26.739 177.182 C 27.419 176.978,28.196 176.746,28.468 176.666 C 28.959 176.520,28.958 176.515,28.171 175.505 C 27.198 174.256,27.369 174.225,25.838 175.923 " stroke="none" fill="#690c38" fill-rule="evenodd"></path><path id="path2" d="M71.385 0.472 C 71.372 2.376,65.797 10.460,60.643 16.048 C 59.299 17.506,57.900 19.049,57.534 19.478 L 56.868 20.257 56.621 37.835 C 56.486 47.503,56.313 58.485,56.236 62.241 L 56.098 69.069 56.731 68.742 C 60.328 66.882,65.419 61.457,68.636 56.056 C 79.194 38.333,80.654 24.292,73.852 5.895 C 73.416 4.716,73.041 3.655,73.019 3.537 C 72.997 3.419,72.903 3.202,72.811 3.055 C 72.720 2.909,72.611 2.619,72.570 2.412 C 72.451 1.811,71.388 0.070,71.385 0.472 M13.549 57.711 C 7.916 62.172,3.025 74.508,3.496 83.065 C 4.000 92.221,10.673 105.825,18.463 113.578 L 19.829 114.937 19.886 101.681 L 19.943 88.424 19.053 86.502 C 15.812 79.508,14.793 74.342,14.599 63.915 L 14.469 56.982 13.549 57.711 M62.090 81.451 C 57.099 83.045,58.132 90.461,63.344 90.461 C 68.112 90.461,69.746 84.017,65.527 81.854 C 64.569 81.362,62.959 81.174,62.090 81.451 M307.503 104.839 C 295.516 105.772,288.056 112.411,288.009 122.186 C 287.962 131.796,293.008 135.981,309.753 140.225 C 324.623 143.992,327.447 145.771,327.718 151.537 C 328.022 158.007,322.438 162.269,313.183 162.632 C 302.338 163.057,293.703 156.848,293.678 148.607 C 293.676 148.028,293.768 148.032,289.603 148.446 C 287.894 148.616,286.264 148.758,285.981 148.761 C 285.341 148.769,285.434 151.142,286.187 154.018 C 288.419 162.539,294.868 168.025,304.747 169.803 C 322.193 172.945,336.035 164.716,335.985 151.233 C 335.947 140.799,330.243 136.156,312.326 131.974 C 299.056 128.876,296.352 127.128,296.358 121.651 C 296.365 115.879,300.931 112.646,309.450 112.383 C 315.937 112.182,319.987 113.420,322.765 116.454 C 324.259 118.085,325.831 121.721,325.831 123.545 C 325.831 124.369,325.974 124.387,330.260 124.096 L 334.243 123.826 334.100 122.246 C 333.053 110.694,322.342 103.684,307.503 104.839 M81.458 137.509 L 81.458 169.346 85.637 169.346 L 89.816 169.346 89.870 144.680 L 89.925 120.014 106.397 144.680 L 122.869 169.346 127.244 169.346 L 131.618 169.346 131.618 137.513 L 131.618 105.681 127.546 105.681 L 123.474 105.681 123.420 130.418 L 123.365 155.155 106.847 130.471 L 90.329 105.788 85.893 105.730 L 81.458 105.672 81.458 137.509 M145.766 137.513 L 145.766 169.346 169.453 169.346 L 193.140 169.346 193.140 165.488 L 193.140 161.629 173.741 161.629 L 154.341 161.629 154.341 150.911 L 154.341 140.193 171.919 140.193 L 189.496 140.193 189.496 136.442 L 189.496 132.690 171.919 132.690 L 154.341 132.690 154.341 123.044 L 154.341 113.398 173.098 113.398 L 191.854 113.398 191.854 109.539 L 191.854 105.681 168.810 105.681 L 145.766 105.681 145.766 137.513 M201.108 105.874 C 201.147 105.980,206.002 112.833,211.897 121.102 C 217.792 129.371,222.600 136.188,222.582 136.251 C 222.564 136.314,217.114 143.690,210.471 152.643 C 203.828 161.596,198.360 169.017,198.321 169.134 C 198.275 169.270,200.076 169.346,203.358 169.346 L 208.467 169.345 216.581 158.075 C 221.043 151.876,225.282 145.864,225.999 144.715 L 227.303 142.625 228.577 144.571 C 229.278 145.641,233.472 151.653,237.898 157.931 L 245.944 169.346 251.184 169.346 C 255.788 169.346,256.408 169.307,256.298 169.020 C 256.204 168.774,233.762 137.277,232.758 135.981 C 232.631 135.818,236.260 130.783,243.570 120.976 C 249.621 112.858,254.647 106.096,254.737 105.949 C 254.867 105.737,253.911 105.681,250.221 105.681 L 245.540 105.681 238.265 115.273 C 234.263 120.549,230.267 125.939,229.384 127.250 L 227.778 129.634 226.771 128.000 C 225.622 126.137,223.206 122.641,216.184 112.685 L 211.254 105.694 206.145 105.687 C 203.198 105.683,201.066 105.762,201.108 105.874 M265.166 137.513 L 265.166 169.346 269.453 169.346 L 273.741 169.346 273.741 137.513 L 273.741 105.681 269.453 105.681 L 265.166 105.681 265.166 137.513 M364.776 105.841 C 364.724 105.930,359.257 120.134,352.626 137.406 C 345.995 154.678,340.523 168.931,340.466 169.078 C 340.384 169.288,341.366 169.346,344.948 169.346 L 349.535 169.346 352.075 162.326 C 353.472 158.465,355.046 154.124,355.572 152.680 L 356.530 150.054 369.654 150.054 L 382.778 150.054 386.495 159.700 L 390.213 169.346 395.124 169.346 C 397.826 169.346,400.004 169.262,399.964 169.160 C 399.925 169.058,394.061 154.733,386.933 137.327 L 373.973 105.681 369.421 105.681 C 366.918 105.681,364.828 105.753,364.776 105.841 M376.104 132.369 C 378.196 137.910,379.954 142.613,380.011 142.819 C 380.108 143.172,379.509 143.194,369.586 143.194 C 363.795 143.194,359.057 143.131,359.057 143.055 C 359.057 142.978,360.739 138.420,362.795 132.926 C 366.574 122.827,367.872 118.927,368.723 115.115 L 369.191 113.020 370.746 117.657 C 371.600 120.207,374.012 126.827,376.104 132.369 " stroke="none" fill="#f10472" fill-rule="evenodd"></path><path id="path3" d="M54.018 22.681 C 48.770 27.670,43.278 32.498,35.082 39.325 C 32.978 41.078,30.749 42.976,30.129 43.543 L 29.001 44.574 28.843 53.279 C 28.684 62.090,28.699 62.452,29.197 61.917 C 29.350 61.753,30.485 60.512,31.720 59.159 C 36.608 53.802,40.730 49.850,46.409 45.073 C 49.731 42.279,55.563 37.699,55.666 37.803 C 55.838 37.974,54.597 41.728,53.665 43.855 C 52.424 46.690,50.701 49.554,47.875 53.483 C 41.946 61.727,40.311 65.964,40.553 72.454 L 40.622 74.277 41.693 74.207 C 45.934 73.934,54.078 71.094,56.592 69.011 L 57.128 68.567 56.613 68.821 L 56.098 69.075 56.236 62.244 C 56.313 58.487,56.484 47.503,56.617 37.835 C 56.854 20.582,56.867 20.248,57.298 19.775 C 58.320 18.654,57.344 19.519,54.018 22.681 M77.863 22.937 C 77.863 23.349,77.907 23.518,77.961 23.312 C 78.015 23.106,78.015 22.768,77.961 22.562 C 77.907 22.355,77.863 22.524,77.863 22.937 M13.599 57.502 L 12.969 58.198 13.612 57.666 C 13.966 57.373,14.347 57.060,14.459 56.970 C 14.585 56.868,14.580 56.806,14.445 56.806 C 14.326 56.806,13.945 57.119,13.599 57.502 M62.589 64.041 L 60.772 65.916 62.647 64.099 C 64.389 62.411,64.621 62.165,64.465 62.165 C 64.433 62.165,63.589 63.009,62.589 64.041 M14.645 67.738 C 14.645 68.505,14.684 68.818,14.732 68.435 C 14.779 68.052,14.779 67.425,14.732 67.042 C 14.684 66.659,14.645 66.972,14.645 67.738 M14.841 70.954 C 14.841 71.367,14.885 71.535,14.939 71.329 C 14.993 71.123,14.993 70.785,14.939 70.579 C 14.885 70.372,14.841 70.541,14.841 70.954 M18.669 85.638 C 18.669 85.756,18.901 86.286,19.185 86.817 C 19.470 87.347,19.702 87.685,19.702 87.567 C 19.702 87.449,19.470 86.919,19.185 86.388 C 18.901 85.857,18.669 85.520,18.669 85.638 M19.936 101.641 L 19.936 114.965 19.453 114.571 C 18.073 113.444,27.423 122.677,29.153 124.150 C 30.878 125.618,41.799 133.940,42.283 134.155 C 42.371 134.194,42.445 133.857,42.447 133.405 C 42.465 129.562,45.004 125.009,48.285 122.937 C 49.577 122.120,49.709 122.396,46.788 119.807 C 44.342 117.639,40.432 113.974,37.009 110.642 C 35.067 108.751,31.197 104.538,30.682 103.754 C 30.490 103.460,29.558 102.255,28.611 101.074 C 25.604 97.326,22.375 92.567,20.791 89.550 C 20.435 88.872,20.097 88.317,20.040 88.317 C 19.983 88.317,19.936 94.313,19.936 101.641 M55.989 147.400 C 56.379 147.945,56.819 148.438,56.967 148.495 C 57.114 148.552,57.235 148.733,57.235 148.898 C 57.235 149.062,57.331 149.196,57.449 149.196 C 57.570 149.196,57.663 148.589,57.663 147.803 L 57.663 146.409 56.471 146.409 L 55.279 146.409 55.989 147.400 " stroke="none" fill="#98094d" fill-rule="evenodd"></path><path id="path4" d="M51.457 123.053 C 45.902 124.204,43.084 130.795,46.121 135.529 C 46.726 136.472,48.320 138.049,48.668 138.049 C 48.842 138.049,50.967 135.947,51.060 135.683 C 51.096 135.581,52.536 134.022,54.260 132.218 C 55.984 130.415,57.929 128.369,58.583 127.673 L 59.770 126.406 59.317 125.794 C 57.829 123.780,54.145 122.496,51.457 123.053 M11.119 159.465 C 4.941 161.882,6.159 171.688,12.639 171.702 C 13.545 171.704,15.434 170.374,15.434 169.735 C 15.434 169.644,16.399 168.579,17.579 167.368 C 19.711 165.179,19.723 165.161,19.590 164.309 C 18.994 160.512,14.708 158.061,11.119 159.465 M38.457 190.947 C 34.488 192.367,32.995 197.052,35.393 200.564 C 36.382 202.011,36.267 202.073,41.105 197.495 C 43.551 195.181,45.583 193.264,45.620 193.235 C 45.657 193.207,45.328 192.824,44.889 192.384 C 43.285 190.781,40.599 190.180,38.457 190.947 M32.961 218.771 C 32.085 219.246,31.815 220.727,32.478 221.413 C 32.787 221.733,33.740 221.121,34.941 219.832 L 35.477 219.256 34.971 218.846 C 34.370 218.359,33.762 218.336,32.961 218.771 " stroke="none" fill="#92a7ca" fill-rule="evenodd"></path></g></svg>